<?xml version="1.0" standalone="no"?><!DOCTYPE svg PUBLIC "-//W3C//DTD SVG 1.1//EN" "http://www.w3.org/Graphics/SVG/1.1/DTD/svg11.dtd"><svg xmlns:xlink="http://www.w3.org/1999/xlink" version="1.1" class="highcharts-root" style="font-family:&quot;Lucida Grande&quot;, &quot;Lucida Sans Unicode&quot;, Arial, Helvetica, sans-serif;font-size:12px;" xmlns="http://www.w3.org/2000/svg" width="600" height="400" viewBox="0 0 600 400"><desc>Created with Highcharts 7.1.2</desc><defs><clipPath id="highcharts-oa4ih1e-39-"><rect x="0" y="0" width="455" height="298" fill="none"></rect></clipPath></defs><rect fill="#ffffff" class="highcharts-background" x="0" y="0" width="600" height="400" rx="0" ry="0"></rect><rect fill="none" class="highcharts-plot-background" x="70" y="47" width="455" height="298"></rect><g class="highcharts-grid highcharts-xaxis-grid" data-z-index="1"><path fill="none" data-z-index="1" class="highcharts-grid-line" d="M 73.5 47 L 73.5 345" opacity="1"></path><path fill="none" data-z-index="1" class="highcharts-grid-line" d="M 163.5 47 L 163.5 345" opacity="1"></path><path fill="none" data-z-index="1" class="highcharts-grid-line" d="M 252.5 47 L 252.5 345" opacity="1"></path><path fill="none" data-z-index="1" class="highcharts-grid-line" d="M 341.5 47 L 341.5 345" opacity="1"></path><path fill="none" data-z-index="1" class="highcharts-grid-line" d="M 430.5 47 L 430.5 345" opacity="1"></path><path fill="none" data-z-index="1" class="highcharts-grid-line" d="M 520.5 47 L 520.5 345" opacity="1"></path></g><g class="highcharts-grid highcharts-yaxis-grid" data-z-index="1"><path fill="none" stroke="#e6e6e6" stroke-width="1" data-z-index="1" class="highcharts-grid-line" d="M 70 345.5 L 525 345.5" opacity="1"></path><path fill="none" stroke="#e6e6e6" stroke-width="1" data-z-index="1" class="highcharts-grid-line" d="M 70 285.5 L 525 285.5" opacity="1"></path><path fill="none" stroke="#e6e6e6" stroke-width="1" data-z-index="1" class="highcharts-grid-line" d="M 70 226.5 L 525 226.5" opacity="1"></path><path fill="none" stroke="#e6e6e6" stroke-width="1" data-z-index="1" class="highcharts-grid-line" d="M 70 166.5 L 525 166.5" opacity="1"></path><path fill="none" stroke="#e6e6e6" stroke-width="1" data-z-index="1" class="highcharts-grid-line" d="M 70 107.5 L 525 107.5" opacity="1"></path><path fill="none" stroke="#e6e6e6" stroke-width="1" data-z-index="1" class="highcharts-grid-line" d="M 70 46.5 L 525 46.5" opacity="1"></path></g><rect fill="none" class="highcharts-plot-border" data-z-index="1" x="70" y="47" width="455" height="298"></rect><g class="highcharts-axis highcharts-xaxis" data-z-index="2"><path fill="none" class="highcharts-tick" stroke="#ccd6eb" stroke-width="1" d="M 73.5 345 L 73.5 355" opacity="1"></path><path fill="none" class="highcharts-tick" stroke="#ccd6eb" stroke-width="1" d="M 163.5 345 L 163.5 355" opacity="1"></path><path fill="none" class="highcharts-tick" stroke="#ccd6eb" stroke-width="1" d="M 252.5 345 L 252.5 355" opacity="1"></path><path fill="none" class="highcharts-tick" stroke="#ccd6eb" stroke-width="1" d="M 341.5 345 L 341.5 355" opacity="1"></path><path fill="none" class="highcharts-tick" stroke="#ccd6eb" stroke-width="1" d="M 430.5 345 L 430.5 355" opacity="1"></path><path fill="none" class="highcharts-tick" stroke="#ccd6eb" stroke-width="1" d="M 520.5 345 L 520.5 355" opacity="1"></path><text x="297.5" data-z-index="7" text-anchor="middle" transform="translate(0,0)" class="highcharts-axis-title" style="color:#666666;fill:#666666;" y="383"><tspan>Onboarding Flow %</tspan></text><path fill="none" class="highcharts-axis-line" stroke="#ccd6eb" stroke-width="1" data-z-index="7" d="M 70 345.5 L 525 345.5"></path></g><g class="highcharts-axis highcharts-yaxis" data-z-index="2"><text x="24.140625" data-z-index="7" text-anchor="middle" transform="translate(0,0) rotate(270 24.140625 196)" class="highcharts-axis-title" style="color:#666666;fill:#666666;" y="196"><tspan>% of users who have been or are still in this step.</tspan></text><path fill="none" class="highcharts-axis-line" data-z-index="7" d="M 70 47 L 70 345"></path></g><g class="highcharts-series-group" data-z-index="3"><g data-z-index="0.1" class="highcharts-series highcharts-series-0 highcharts-spline-series highcharts-color-0 " transform="translate(70,47) scale(1 1)" clip-path="url(#highcharts-oa4ih1e-39-)"><path fill="none" d="M 450.53921568627 221.7674418604651 C 450.53921568627 221.7674418604651 447.862745098038 124.7441860465116 446.07843137255 97.02325581395345 C 438.94117647059 69.30232558139531 435.37254901961006 71.93346472211246 428.23529411765 69.30232558139531 C 330.09803921569 33.124162396531055 281.02941176471006 -5.684341886080802e-14 182.89215686275 -5.684341886080802e-14 C 111.51960784314022 -5.684341886080802e-14 4.4607843137255 0 4.4607843137255 0" class="highcharts-graph" data-z-index="1" stroke="#7cb5ec" stroke-width="2" stroke-linejoin="round" stroke-linecap="round"></path></g><g data-z-index="0.1" class="highcharts-markers highcharts-series-0 highcharts-spline-series highcharts-color-0 " transform="translate(70,47) scale(1 1)" clip-path="none"><path fill="#7cb5ec" d="M 450 226 A 4 4 0 1 1 450.00399999933336 225.99999800000018 Z" opacity="1" class="highcharts-point highcharts-color-0"></path><path fill="#7cb5ec" d="M 446 101 A 4 4 0 1 1 446.00399999933336 100.99999800000016 Z" opacity="1" class="highcharts-point highcharts-color-0"></path><path fill="#7cb5ec" d="M 428 73 A 4 4 0 1 1 428.00399999933336 72.99999800000016 Z" opacity="1" class="highcharts-point highcharts-color-0"></path><path fill="#7cb5ec" d="M 4 4 A 4 4 0 1 1 4.0039999993333355 3.9999980000001667 Z" opacity="1" class="highcharts-point highcharts-color-0"></path></g><g data-z-index="0.1" class="highcharts-series highcharts-series-1 highcharts-spline-series highcharts-color-1 " transform="translate(70,47) scale(1 1)" clip-path="url(#highcharts-oa4ih1e-39-)"><path fill="none" d="M 450.53921568627 240.32258064516128 C 450.53921568627 240.32258064516128 447.862745098038 181.1070967741861 446.07843137255 173.03225806451613 C 438.94117647059 140.732903225799 435.37254901961006 142.1013282732444 428.23529411765 139.38709677419354 C 374.705882352942 119.03036053130894 347.941176470588 125.44838709677458 294.41176470588 115.35483870967744 C 276.56862745098 111.99032258064557 267.64705882353 109.58709677419327 249.80392156863 105.74193548387098 C 240.882352941178 103.8193548387094 236.42156862745202 105.74193548387098 227.5 100.93548387096774 C 209.6568627451 96.12903225806451 200.73529411765 9.61290322580652 182.89215686275 4.806451612903288 C 173.970588235298 5.684341886080802e-14 169.509803921572 1.1368683772161603e-13 160.58823529412 5.684341886080802e-14 C 98.13725490196221 0 4.4607843137255 0 4.4607843137255 0" class="highcharts-graph" data-z-index="1" stroke="#434348" stroke-width="2" stroke-linejoin="round" stroke-linecap="round"></path></g><g data-z-index="0.1" class="highcharts-markers highcharts-series-1 highcharts-spline-series highcharts-color-1 " transform="translate(70,47) scale(1 1)" clip-path="none"><path fill="#434348" d="M 450 236 L 454 240 450 244 446 240 Z" opacity="1" class="highcharts-point highcharts-color-1"></path><path fill="#434348" d="M 446 169 L 450 173 446 177 442 173 Z" opacity="1" class="highcharts-point highcharts-color-1"></path><path fill="#434348" d="M 428 135 L 432 139 428 143 424 139 Z" opacity="1" class="highcharts-point highcharts-color-1"></path><path fill="#434348" d="M 294 111 L 298 115 294 119 290 115 Z" opacity="1" class="highcharts-point highcharts-color-1"></path><path fill="#434348" d="M 249 102 L 253 106 249 110 245 106 Z" opacity="1" class="highcharts-point highcharts-color-1"></path><path fill="#434348" d="M 227 97 L 231 101 227 105 223 101 Z" opacity="1" class="highcharts-point highcharts-color-1"></path><path fill="#434348" d="M 182 1 L 186 5 182 9 178 5 Z" opacity="1" class="highcharts-point highcharts-color-1"></path><path fill="#434348" d="M 160 -4 L 164 0 160 4 156 0 Z" opacity="1" class="highcharts-point highcharts-color-1"></path><path fill="#434348" d="M 4 -4 L 8 0 4 4 0 0 Z" opacity="1" class="highcharts-point highcharts-color-1"></path></g><g data-z-index="0.1" class="highcharts-series highcharts-series-2 highcharts-spline-series highcharts-color-2 " transform="translate(70,47) scale(1 1)" clip-path="url(#highcharts-oa4ih1e-39-)"><path fill="none" d="M 450.53921568627 230.52830188679246 C 450.53921568627 230.52830188679246 447.862745098038 199.26641509433563 446.07843137255 194.9182389937107 C 438.94117647059 177.52553459119096 435.37254901961006 178.05031446540883 428.23529411765 176.17610062893084 C 374.705882352942 174.30188679245285 347.941176470588 176.17610062893084 294.41176470588 174.30188679245285 C 285.490196078428 172.42767295597486 281.02941176470193 169.42893081761065 272.10784313725 166.80503144654088 C 263.186274509802 164.18113207547228 258.72549019607794 163.0566037735845 249.80392156863 161.18238993710693 C 240.882352941178 159.30817610062854 236.42156862745202 158.93333333333334 227.5 157.43396226415095 C 218.57843137254798 155.93459119496856 214.117647058822 157.43396226415095 205.19607843137 153.685534591195 C 196.274509803922 149.93710691823904 191.813725490198 3.7484276729560406 182.89215686275 1.8742138364780203 C 111.51960784314022 0 4.4607843137255 0 4.4607843137255 0" class="highcharts-graph" data-z-index="1" stroke="#90ed7d" stroke-width="2" stroke-linejoin="round" stroke-linecap="round"></path></g><g data-z-index="0.1" class="highcharts-markers highcharts-series-2 highcharts-spline-series highcharts-color-2 " transform="translate(70,47) scale(1 1)" clip-path="none"><path fill="#90ed7d" d="M 446 227 L 454 227 454 235 446 235 Z" opacity="1" class="highcharts-point highcharts-color-2"></path><path fill="#90ed7d" d="M 442 191 L 450 191 450 199 442 199 Z" opacity="1" class="highcharts-point highcharts-color-2"></path><path fill="#90ed7d" d="M 424 172 L 432 172 432 180 424 180 Z" opacity="1" class="highcharts-point highcharts-color-2"></path><path fill="#90ed7d" d="M 290 170 L 298 170 298 178 290 178 Z" opacity="1" class="highcharts-point highcharts-color-2"></path><path fill="#90ed7d" d="M 268 163 L 276 163 276 171 268 171 Z" opacity="1" class="highcharts-point highcharts-color-2"></path><path fill="#90ed7d" d="M 245 157 L 253 157 253 165 245 165 Z" opacity="1" class="highcharts-point highcharts-color-2"></path><path fill="#90ed7d" d="M 223 153 L 231 153 231 161 223 161 Z" opacity="1" class="highcharts-point highcharts-color-2"></path><path fill="#90ed7d" d="M 201 150 L 209 150 209 158 201 158 Z" opacity="1" class="highcharts-point highcharts-color-2"></path><path fill="#90ed7d" d="M 178 -2 L 186 -2 186 6 178 6 Z" opacity="1" class="highcharts-point highcharts-color-2"></path><path fill="#90ed7d" d="M 0 -4 L 8 -4 8 4 0 4 Z" opacity="1" class="highcharts-point highcharts-color-2"></path></g><g data-z-index="0.1" class="highcharts-series highcharts-series-3 highcharts-spline-series highcharts-color-3 " transform="translate(70,47) scale(1 1)" clip-path="url(#highcharts-oa4ih1e-39-)"><path fill="none" d="M 450.53921568627 210.58666666666667 C 450.53921568627 210.58666666666667 447.862745098038 182.77333333333337 446.07843137255 178.8 C 438.94117647059 174.82666666666665 435.37254901961006 175.21589115646253 428.23529411765 174.82666666666665 C 347.94117647059 170.44789115646253 307.79411764706003 172.60159999999993 227.5 166.88 C 218.57843137254798 166.24426666666662 214.117647058822 166.88 205.19607843137 158.93333333333334 C 196.274509803922 150.98666666666668 191.813725490198 7.946666666666658 182.89215686275 3.9733333333333576 C 173.970588235298 5.684341886080802e-14 169.509803921572 1.1368683772161603e-13 160.58823529412 5.684341886080802e-14 C 98.13725490196221 0 4.4607843137255 0 4.4607843137255 0" class="highcharts-graph" data-z-index="1" stroke="#f7a35c" stroke-width="2" stroke-linejoin="round" stroke-linecap="round"></path></g><g data-z-index="0.1" class="highcharts-markers highcharts-series-3 highcharts-spline-series highcharts-color-3 " transform="translate(70,47) scale(1 1)" clip-path="none"><path fill="#f7a35c" d="M 450 207 L 454 215 446 215 Z" opacity="1" class="highcharts-point highcharts-color-3"></path><path fill="#f7a35c" d="M 446 175 L 450 183 442 183 Z" opacity="1" class="highcharts-point highcharts-color-3"></path><path fill="#f7a35c" d="M 428 171 L 432 179 424 179 Z" opacity="1" class="highcharts-point highcharts-color-3"></path><path fill="#f7a35c" d="M 227 163 L 231 171 223 171 Z" opacity="1" class="highcharts-point highcharts-color-3"></path><path fill="#f7a35c" d="M 205 155 L 209 163 201 163 Z" opacity="1" class="highcharts-point highcharts-color-3"></path><path fill="#f7a35c" d="M 182 0 L 186 8 178 8 Z" opacity="1" class="highcharts-point highcharts-color-3"></path><path fill="#f7a35c" d="M 160 -4 L 164 4 156 4 Z" opacity="1" class="highcharts-point highcharts-color-3"></path><path fill="#f7a35c" d="M 4 -4 L 8 4 0 4 Z" opacity="1" class="highcharts-point highcharts-color-3"></path></g></g><g class="highcharts-label highcharts-series-label highcharts-series-label-0" opacity="1" data-z-index="3" transform="translate(486,94)"><path fill="none" class="highcharts-label-box" d="M 0 0" stroke="#7cb5ec" stroke-width="1"></path><text x="0" data-z-index="1" style="font-weight:bold;color:#7cb5ec;fill:#7cb5ec;" y="12">32</text></g><g class="highcharts-label highcharts-series-label highcharts-series-label-1" opacity="1" data-z-index="3" transform="translate(482,163)"><path fill="none" class="highcharts-label-box" d="M 0 0" stroke="#434348" stroke-width="1"></path><text x="0" data-z-index="1" style="font-weight:bold;color:#434348;fill:#434348;" y="12">31</text></g><g class="highcharts-label highcharts-series-label highcharts-series-label-2" opacity="1" data-z-index="3" transform="translate(500,265)"><path fill="none" class="highcharts-label-box" d="M 0 0" stroke="#90ed7d" stroke-width="1"></path><text x="0" data-z-index="1" style="font-weight:bold;color:#90ed7d;fill:#90ed7d;" y="12">30</text></g><g class="highcharts-label highcharts-series-label highcharts-series-label-3" opacity="1" data-z-index="3" transform="translate(235,55)"><path fill="none" class="highcharts-label-box" d="M 0 0" stroke="#f7a35c" stroke-width="1"></path><text x="0" data-z-index="1" style="font-weight:bold;color:#f7a35c;fill:#f7a35c;" y="12">29</text></g><text x="300" text-anchor="middle" class="highcharts-title" data-z-index="4" style="color:#333333;font-size:18px;fill:#333333;" y="24"><tspan>Retention Chart</tspan></text><text x="300" text-anchor="middle" class="highcharts-subtitle" data-z-index="4" style="color:#666666;fill:#666666;" y="46"></text><g class="highcharts-legend" data-z-index="7" transform="translate(537,164)"><rect fill="none" class="highcharts-legend-box" rx="0" ry="0" x="0" y="0" width="52" height="67" visibility="visible"></rect><g data-z-index="1"><g><g class="highcharts-legend-item highcharts-spline-series highcharts-color-0 highcharts-series-0" data-z-index="1" transform="translate(8,3)"><path fill="none" d="M 0 11 L 16 11" class="highcharts-graph" stroke="#7cb5ec" stroke-width="2"></path><path fill="#7cb5ec" d="M 8 15 A 4 4 0 1 1 8.003999999333336 14.999998000000167 Z" class="highcharts-point" opacity="1"></path><text x="21" style="color:#333333;cursor:pointer;font-size:12px;font-weight:bold;fill:#333333;" text-anchor="start" data-z-index="2" y="15"><tspan>32</tspan></text></g><g class="highcharts-legend-item highcharts-spline-series highcharts-color-1 highcharts-series-1" data-z-index="1" transform="translate(8,17)"><path fill="none" d="M 0 11 L 16 11" class="highcharts-graph" stroke="#434348" stroke-width="2"></path><path fill="#434348" d="M 8 7 L 12 11 8 15 4 11 Z" class="highcharts-point" opacity="1"></path><text x="21" y="15" style="color:#333333;cursor:pointer;font-size:12px;font-weight:bold;fill:#333333;" text-anchor="start" data-z-index="2"><tspan>31</tspan></text></g><g class="highcharts-legend-item highcharts-spline-series highcharts-color-2 highcharts-series-2" data-z-index="1" transform="translate(8,31)"><path fill="none" d="M 0 11 L 16 11" class="highcharts-graph" stroke="#90ed7d" stroke-width="2"></path><path fill="#90ed7d" d="M 4 7 L 12 7 12 15 4 15 Z" class="highcharts-point" opacity="1"></path><text x="21" y="15" style="color:#333333;cursor:pointer;font-size:12px;font-weight:bold;fill:#333333;" text-anchor="start" data-z-index="2"><tspan>30</tspan></text></g><g class="highcharts-legend-item highcharts-spline-series highcharts-color-3 highcharts-series-3" data-z-index="1" transform="translate(8,45)"><path fill="none" d="M 0 11 L 16 11" class="highcharts-graph" stroke="#f7a35c" stroke-width="2"></path><path fill="#f7a35c" d="M 8 7 L 12 15 4 15 Z" class="highcharts-point" opacity="1"></path><text x="21" y="15" style="color:#333333;cursor:pointer;font-size:12px;font-weight:bold;fill:#333333;" text-anchor="start" data-z-index="2"><tspan>29</tspan></text></g></g></g></g><g class="highcharts-axis-labels highcharts-xaxis-labels" data-z-index="7"><text x="74.460784313725" style="color:#666666;cursor:default;font-size:11px;fill:#666666;" text-anchor="middle" transform="translate(0,0)" y="364" opacity="1">0</text><text x="163.67647058824" style="color:#666666;cursor:default;font-size:11px;fill:#666666;" text-anchor="middle" transform="translate(0,0)" y="364" opacity="1">20</text><text x="252.89215686275" style="color:#666666;cursor:default;font-size:11px;fill:#666666;" text-anchor="middle" transform="translate(0,0)" y="364" opacity="1">40</text><text x="342.10784313725" style="color:#666666;cursor:default;font-size:11px;fill:#666666;" text-anchor="middle" transform="translate(0,0)" y="364" opacity="1">60</text><text x="431.32352941176" style="color:#666666;cursor:default;font-size:11px;fill:#666666;" text-anchor="middle" transform="translate(0,0)" y="364" opacity="1">80</text><text x="520.53921568627" style="color:#666666;cursor:default;font-size:11px;fill:#666666;" text-anchor="middle" transform="translate(0,0)" y="364" opacity="1">100</text></g><g class="highcharts-axis-labels highcharts-yaxis-labels" data-z-index="7"><text x="55" style="color:#666666;cursor:default;font-size:11px;fill:#666666;" text-anchor="end" transform="translate(0,0)" y="350" opacity="1">0</text><text x="55" style="color:#666666;cursor:default;font-size:11px;fill:#666666;" text-anchor="end" transform="translate(0,0)" y="290" opacity="1">20</text><text x="55" style="color:#666666;cursor:default;font-size:11px;fill:#666666;" text-anchor="end" transform="translate(0,0)" y="230" opacity="1">40</text><text x="55" style="color:#666666;cursor:default;font-size:11px;fill:#666666;" text-anchor="end" transform="translate(0,0)" y="171" opacity="1">60</text><text x="55" style="color:#666666;cursor:default;font-size:11px;fill:#666666;" text-anchor="end" transform="translate(0,0)" y="111" opacity="1">80</text><text x="55" style="color:#666666;cursor:default;font-size:11px;fill:#666666;" text-anchor="end" transform="translate(0,0)" y="52" opacity="1">100</text></g><text x="590" class="highcharts-credits" text-anchor="end" data-z-index="8" style="cursor:pointer;color:#999999;font-size:9px;fill:#999999;" y="395">Highcharts.com</text></svg>